<svg width="269" height="200" viewBox="0 0 269 200" fill="none" xmlns="http://www.w3.org/2000/svg">
<path fill-rule="evenodd" clip-rule="evenodd" d="M14.1612 137.657C32.0382 146.823 51.6082 157.069 103.403 184.381C130.542 198.691 134.159 200.421 135.831 199.89C136.808 199.58 147.237 194.242 159.006 188.029C170.774 181.815 187.153 173.21 195.403 168.906C203.653 164.601 213.553 159.409 217.403 157.367C221.253 155.325 230.703 150.382 238.403 146.381C246.103 142.381 256.131 137.097 260.687 134.638L268.971 130.168L268.687 120.205L268.403 110.241L256.403 103.988C249.803 100.549 239.003 94.8969 232.403 91.4289C225.803 87.9609 215.453 82.5329 209.403 79.3669C203.353 76.2019 189.853 69.1169 179.403 63.6228C168.953 58.1299 154.631 50.6219 147.575 46.9398L134.748 40.2458L131.075 42.1658C129.056 43.2218 122.003 46.9079 115.403 50.3559C108.803 53.8049 99.3531 58.7489 94.4032 61.3428C89.4532 63.9368 77.4162 70.2399 67.6532 75.3499C57.8902 80.4589 49.9032 84.9538 49.9032 85.3379C49.9032 85.7209 53.8892 88.1029 58.7622 90.6309C66.6572 94.7269 67.8802 95.0909 70.0122 93.9809C71.3272 93.2959 78.2532 89.6469 85.4032 85.8709C118.366 68.4629 124.738 65.1139 129.548 62.6689L134.692 60.0538L138.548 61.9929C146.184 65.8339 174.469 80.6669 177.403 82.3699C179.053 83.3269 186.253 87.1759 193.403 90.9229C200.553 94.6699 212.253 100.819 219.403 104.588C226.553 108.356 236.115 113.323 240.653 115.626C245.191 117.929 248.899 120.05 248.895 120.34C248.886 120.903 246.511 122.206 223.903 134.057C215.928 138.237 202.428 145.353 193.903 149.871C185.378 154.388 172.103 161.366 164.403 165.379C156.703 169.391 146.919 174.513 142.661 176.761L134.92 180.849L124.661 175.62C119.019 172.744 108.778 167.421 101.903 163.79C52.2072 137.547 4.12015 112.363 2.65315 111.811C1.06015 111.212 0.904152 112.037 0.911152 121.01L0.919151 130.867L14.1612 137.657ZM3.36815 91.7519C4.72315 92.6399 6.04915 93.3669 6.31415 93.3669C6.57915 93.3669 22.4572 101.623 41.5992 111.713C60.7411 121.803 82.2532 133.121 89.4032 136.865C107.588 146.385 118.169 151.941 127.014 156.614L134.625 160.636L151.514 151.849C160.803 147.017 174.028 140.056 180.903 136.38C187.778 132.705 199.364 126.586 206.649 122.782C213.934 118.979 219.896 115.64 219.899 115.362C219.901 115.084 215.787 112.748 210.757 110.17L201.61 105.483L190.007 111.622C160.404 127.285 153.737 130.776 144.35 135.533L134.298 140.627L97.3502 121.134C77.0292 110.413 55.0032 98.8168 48.4032 95.3659C23.1432 82.1579 20.9032 80.9339 20.9032 80.3429C20.9032 79.6719 23.8162 78.0049 37.9032 70.6179C43.1282 67.8779 52.3532 63.0408 58.4032 59.8689C64.4532 56.6978 73.4532 51.9539 78.4032 49.3269C98.6201 38.5999 111.027 32.0928 122.568 26.1678L134.733 19.9209L145.068 25.2729C150.752 28.2169 159.565 32.8168 164.653 35.4958C169.74 38.1749 178.178 42.6169 183.403 45.3669C188.628 48.1169 197.066 52.5598 202.153 55.2408C211.854 60.3539 222.407 65.8959 242.403 76.3819C249.003 79.8429 257.253 84.1799 260.736 86.0209C264.219 87.8609 267.498 89.3669 268.022 89.3669C268.58 89.3669 268.857 85.4029 268.689 79.8129L268.403 70.2599L260.403 65.9929C252.26 61.6499 218.531 43.9118 195.903 32.0728C189.028 28.4748 176.878 22.1009 168.903 17.9059C160.928 13.7119 149.875 7.98886 144.34 5.18886L134.278 0.0968475L114.84 10.3508C89.3642 23.7888 78.3572 29.5719 61.4032 38.4259C53.7032 42.4479 37.2981 51.0538 24.9482 57.5518C12.5972 64.0499 2.13515 69.3669 1.69815 69.3669C1.26115 69.3669 0.903152 74.0399 0.903152 79.7519C0.903152 89.6859 1.01015 90.2069 3.36815 91.7519Z" fill="white"/>
</svg>
